<svg width="24" height="24" viewBox="0 0 24 24" fill="none" xmlns="http://www.w3.org/2000/svg">
<path d="M16.6138 10.5285C18.5989 10.5285 20.2081 8.91928 20.2081 6.93418C20.2081 4.94908 18.5989 3.33984 16.6138 3.33984C14.6287 3.33984 13.0195 4.94908 13.0195 6.93418C13.0195 8.91928 14.6287 10.5285 16.6138 10.5285Z" fill="#816CEF"/>
<path d="M7.50059 10.5852C9.48569 10.5852 11.095 8.97592 11.095 6.99082C11.095 5.00573 9.48569 3.39648 7.50059 3.39648C5.51549 3.39648 3.90625 5.00573 3.90625 6.99082C3.90625 8.97592 5.51549 10.5852 7.50059 10.5852Z" fill="#816CEF"/>
<path d="M12.0003 13.166C10.4119 14.4528 9.39648 16.4192 9.39648 18.6227C9.39648 19.1096 9.44607 19.535 9.54047 19.9065C9.66329 20.3899 10.1402 20.6604 10.6389 20.6604H13.3617C13.8605 20.6604 14.3373 20.3899 14.4602 19.9065C14.5546 19.535 14.6042 19.1096 14.6042 18.6227C14.6042 16.4192 13.5888 14.4528 12.0003 13.166Z" fill="#553CDD"/>
<path fill-rule="evenodd" clip-rule="evenodd" d="M0.566406 18.6229C0.566406 14.7465 3.70886 11.604 7.58528 11.604C9.25818 11.604 10.7944 12.1893 12.0003 13.1662C10.4119 14.453 9.39649 16.4194 9.39649 18.6229C9.39649 19.1098 9.44608 19.5352 9.54048 19.9067C9.6633 20.3901 10.1402 20.6606 10.6389 20.6606H1.80882C1.31009 20.6606 0.833224 20.3901 0.710403 19.9067C0.615996 19.5352 0.566406 19.1098 0.566406 18.6229ZM13.3617 20.6606H22.1918C22.6906 20.6606 23.1674 20.3901 23.2902 19.9067C23.3846 19.5352 23.4342 19.1098 23.4342 18.6229C23.4342 14.7465 20.2918 11.604 16.4154 11.604C14.7425 11.604 13.2063 12.1893 12.0003 13.1662C13.5888 14.453 14.6042 16.4194 14.6042 18.6229C14.6042 19.1098 14.5546 19.5352 14.4602 19.9067C14.3373 20.3901 13.8605 20.6606 13.3617 20.6606Z" fill="#816CEF"/>
</svg>
