<svg width="1190" height="120" viewBox="0 0 1190 120" fill="none" xmlns="http://www.w3.org/2000/svg" class="d-none d-sm-block mx-auto"><g opacity="0.2"><g clip-path="url(#clip0_936_281)"><path fill-rule="evenodd" clip-rule="evenodd" d="M-3.05176e-05 0H106.667V40.6H-3.05176e-05V0Z" fill="#FF0000"/><path fill-rule="evenodd" clip-rule="evenodd" d="M-3.05176e-05 39.3999H106.667V79.9999H-3.05176e-05V39.3999Z" fill="black"/><path fill-rule="evenodd" clip-rule="evenodd" d="M38.1166 24.7001C65.65 31.9168 47.95 67.3001 26.2333 52.5668L24.7666 54.8334C37.55 63.9334 50.2 56.6001 53.7666 47.1001C57.4666 37.3001 52.5 23.5168 38.3333 22.1001L38.1166 24.7001Z" fill="#FFEC00"/><path fill-rule="evenodd" clip-rule="evenodd" d="M28.3333 55.1332L31.95 56.8166L30.25 60.4499L26.6333 58.7499L28.3333 55.1332ZM53.1666 38.5499H57.1666V42.5499H53.1666V38.5499ZM51.2166 32.0666L54.9333 30.6333L56.3833 34.3499L52.6666 35.7999L51.2166 32.0666ZM46.8833 27.2166L49.7333 24.3999L52.55 27.2333L49.7166 30.0499L46.8833 27.2166ZM42.5166 20.5833L46.25 21.9833L44.8333 25.7166L41.1 24.3166L42.5166 20.5833ZM52.6666 44.9999L56.3833 46.4832L54.8833 50.1833L51.1833 48.6999L52.6666 44.9999ZM41.0166 56.6666L44.6833 55.1166L46.2666 58.7833L42.6 60.3499L41.0166 56.6666ZM34.4333 57.1332H38.4333V61.1332H34.4333V57.1332ZM41.3166 37.7999L37.9333 35.2999L34.55 37.7332L35.8833 33.8999L32.5 31.3999H36.5833L38 27.6333L39.3 31.4166L43.4166 31.3666L40.15 33.9166L41.3166 37.8166V37.7999Z" fill="#FFEC00"/><path fill-rule="evenodd" clip-rule="evenodd" d="M56 57.7334C55.8 57.8001 54.9666 59.8001 54.3833 60.7667L55 60.9334C57.2666 61.7334 58.4 62.4667 59.3666 63.8501C59.5902 64.0678 59.8839 64.1991 60.1952 64.2205C60.5066 64.2419 60.8154 64.1519 61.0666 63.9667C61.0666 63.9667 61.5333 63.8001 62.1333 63.1334C62.6333 62.3834 62.5 61.8001 61.9 61.2834C60.0666 59.9501 58.0833 58.9501 56 57.7334Z" fill="#FFEE00"/><path fill-rule="evenodd" clip-rule="evenodd" d="M60.8833 62.1333C60.8833 62.3255 60.8069 62.51 60.671 62.6459C60.535 62.7819 60.3506 62.8583 60.1583 62.8583C59.966 62.8583 59.7816 62.7819 59.6457 62.6459C59.5097 62.51 59.4333 62.3255 59.4333 62.1333C59.4333 61.9432 59.5088 61.7609 59.6432 61.6265C59.7776 61.4921 59.9599 61.4166 60.15 61.4166C60.34 61.4166 60.5223 61.4921 60.6567 61.6265C60.7911 61.7609 60.8666 61.9432 60.8666 62.1333H60.8833ZM57.3166 59.8666C57.3166 60.0589 57.2403 60.2433 57.1043 60.3793C56.9683 60.5152 56.7839 60.5916 56.5916 60.5916C56.3994 60.5916 56.2149 60.5152 56.079 60.3793C55.943 60.2433 55.8666 60.0589 55.8666 59.8666C55.8666 59.6743 55.943 59.4899 56.079 59.3539C56.2149 59.218 56.3994 59.1416 56.5916 59.1416C56.7839 59.1416 56.9683 59.218 57.1043 59.3539C57.2403 59.4899 57.3166 59.6743 57.3166 59.8666ZM59.1333 61.0333C59.1333 61.2255 59.0569 61.41 58.921 61.5459C58.785 61.6819 58.6006 61.7583 58.4083 61.7583C58.216 61.7583 58.0316 61.6819 57.8957 61.5459C57.7597 61.41 57.6833 61.2255 57.6833 61.0333C57.6833 60.841 57.7597 60.6566 57.8957 60.5206C58.0316 60.3846 58.216 60.3083 58.4083 60.3083C58.6006 60.3083 58.785 60.3846 58.921 60.5206C59.0569 60.6566 59.1333 60.841 59.1333 61.0333Z" fill="black"/><path fill-rule="evenodd" clip-rule="evenodd" d="M54.0833 60.6167C46.9833 56.5667 39.5333 52.2 32.4166 48.15C29.3 46.2 29.15 42.5833 31.25 39.8333C31.45 39.45 31.7166 39.5333 31.8166 39.75C32.0666 41.0833 32.8166 42.4667 33.7166 43.3333C41.1035 47.9799 48.421 52.736 55.6666 57.6C55.1 58.5667 54.6666 59.65 54.0833 60.6V60.6167Z" fill="#FFEE00"/><path fill-rule="evenodd" clip-rule="evenodd" d="M49.5333 50.9167L52.5 53.5834L49.8333 56.5501L46.8666 53.8834L49.5333 50.9167Z" fill="#FFEC00"/><path d="M48.7 57.8L41.55 53.6667M55.25 58.1334L34.4166 45.55L55.25 58.1334ZM52.6833 55.2334L45.6666 50.6834L52.6833 55.2334Z" stroke="black" stroke-width="0.375"/></g></g><g opacity="0.2"><g clip-path="url(#clip1_936_281)"><path fill-rule="evenodd" clip-rule="evenodd" d="M148 0H268V80H148V0Z" fill="#0099FF"/><path fill-rule="evenodd" clip-rule="evenodd" d="M148 0H268L148 80V0Z" fill="#009900"/><path fill-rule="evenodd" clip-rule="evenodd" d="M148 80H174.667L268 16.6667V0H241.333L148 63.3333V80Z" fill="black"/><path fill-rule="evenodd" clip-rule="evenodd" d="M148 61L239.467 0H248.467L148 67V61ZM167.533 80L268 13V19L176.533 80H167.533Z" fill="#FFFF00"/></g></g><g clip-path="url(#clip2_936_281)"><path d="M309.333 0H416V80H309.333V0Z" fill="#006B3F"/><path d="M309.333 0H416V53.3333H309.333V0Z" fill="#FCD116"/><path d="M309.333 0H416V26.6667H309.333V0Z" fill="#CE1126"/><path d="M362.667 26.6667L371.333 53.3334L348.65 36.8501H376.667L354 53.3334L362.667 26.6667Z" fill="black"/></g><g clip-path="url(#clip3_936_281)"><path fill-rule="evenodd" clip-rule="evenodd" d="M464 0H570.667V80H464V0Z" fill="white"/><path fill-rule="evenodd" clip-rule="evenodd" d="M535.1 0H570.667V80H535.1V0ZM464 0H499.55V80H464V0Z" fill="#008753"/></g><g clip-path="url(#clip4_936_281)"><path d="M618.667 0H725.333V80H618.667V0Z" fill="white"/><path d="M618.667 0H725.333V24H618.667V0Z" fill="black"/><path d="M618.667 56H725.333V80H618.667V56Z" fill="#006600"/><path d="M657.7 63.75L658.6 64.25L681.95 23.75C683.3 23.45 684.05 22.15 684.8 20.85C685.3 19.95 687.3 16.5 688.15 12C685.778 14.108 683.768 16.591 682.2 19.35C681.45 20.65 680.7 21.95 681.05 23.3L657.7 63.75Z" fill="black" stroke="black" stroke-width="0.375" stroke-miterlimit="10"/><path d="M657.7 63.75L658.6 64.25L681.95 23.75C683.3 23.45 684.05 22.15 684.8 20.85C685.3 19.95 687.3 16.5 688.15 12C685.778 14.108 683.768 16.591 682.2 19.35C681.45 20.65 680.7 21.95 681.05 23.3L657.7 63.75Z" fill="white"/><path d="M686.3 63.75L685.4 64.25L662.05 23.75C660.7 23.45 659.95 22.15 659.2 20.85C658.7 19.95 656.7 16.5 655.85 12C658.222 14.108 660.232 16.591 661.8 19.35C662.55 20.65 663.3 21.95 662.95 23.3L686.3 63.75Z" fill="black" stroke="black" stroke-width="0.375" stroke-miterlimit="10"/><path d="M686.3 63.75L685.4 64.25L662.05 23.75C660.7 23.45 659.95 22.15 659.2 20.85C658.7 19.95 656.7 16.5 655.85 12C658.222 14.108 660.232 16.591 661.8 19.35C662.55 20.65 663.3 21.95 662.95 23.3L686.3 63.75Z" fill="white"/><path d="M725.417 28H681.5C680 24 675 16 672 16C669 16 664 24 662.5 28H618.633V52H662.5C664 56 669 64 672 64C675 64 680 56 681.5 52H725.417V28Z" fill="#BB0000"/><path d="M681.5 52C683 48 684 44 684 40C684 36 683 32 681.5 28C680 32 679 36 679 40C679 44 680 48 681.5 52Z" fill="black"/><path d="M662.5 52C661 48 660 44 660 40C660 36 661 32 662.5 28C664 32 665 36 665 40C665 44 664 48 662.5 52Z" fill="black"/><path d="M672 43C673.105 43 674 41.6569 674 40C674 38.3431 673.105 37 672 37C670.895 37 670 38.3431 670 40C670 41.6569 670.895 43 672 43Z" fill="white"/><path d="M672.5 42.9001C672.5 42.9001 674.5 46.9001 674.5 53.4001C674.5 59.9001 672.5 63.9001 672.5 63.9001V42.9001Z" fill="white"/><path d="M671.5 37.1001C671.5 37.1001 669.5 33.1001 669.5 26.6001C669.5 20.1001 671.5 16.1001 671.5 16.1001V37.1001Z" fill="white"/><path d="M671.5 42.9001C671.5 42.9001 669.5 46.9001 669.5 53.4001C669.5 59.9001 671.5 63.9001 671.5 63.9001V42.9001Z" fill="white"/><path d="M672.5 37.1001C672.5 37.1001 674.5 33.1001 674.5 26.6001C674.5 20.1001 672.5 16.1001 672.5 16.1001V37.1001Z" fill="white"/></g><g clip-path="url(#clip5_936_281)"><path d="M773.333 0H880V80H773.333V0Z" fill="#20603D"/><path d="M773.333 0H880V60H773.333V0Z" fill="#FAD201"/><path d="M773.333 0H880V40H773.333V0Z" fill="#00A1DE"/><path d="M871.4 20.9002L862.467 21.4224L870.956 24.2446L862.2 22.4335L869.678 27.3447L861.678 23.3224L867.611 30.0224L860.933 24.078L864.955 32.078L860.033 24.6002L861.833 33.3447L859.022 24.8669L858.5 33.8002L858.389 20.7891L871.4 20.9002Z" fill="#E5BE01"/><path d="M871.4 20.9001L862.467 20.3779L870.956 17.5557L862.2 19.3668L869.678 14.4556L861.678 18.4779L867.611 11.7779L860.933 17.7223L864.955 9.72229L860.033 17.2001L861.833 8.45561L859.022 16.9334L858.5 8.00005L858.389 21.0112L871.4 20.9001Z" fill="#E5BE01"/><path d="M845.6 20.9002L854.533 21.4224L846.044 24.2446L854.8 22.4335L847.322 27.3447L855.322 23.3224L849.389 30.0224L856.067 24.078L852.044 32.078L856.967 24.6002L855.167 33.3447L857.978 24.8669L858.5 33.8002L858.611 20.7891L845.6 20.9002Z" fill="#E5BE01"/><path d="M845.6 20.9001L854.533 20.3779L846.044 17.5557L854.8 19.3668L847.322 14.4556L855.322 18.4779L849.389 11.7779L856.067 17.7223L852.044 9.72229L856.967 17.2001L855.167 8.45561L857.978 16.9334L858.5 8.00005L858.611 21.0112L845.6 20.9001Z" fill="#E5BE01"/><path d="M858.5 24.7111C860.605 24.7111 862.311 23.0048 862.311 20.9C862.311 18.7952 860.605 17.0889 858.5 17.0889C856.395 17.0889 854.689 18.7952 854.689 20.9C854.689 23.0048 856.395 24.7111 858.5 24.7111Z" fill="#E5BE01" stroke="#00A1DE" stroke-width="0.283335"/></g><g opacity="0.2"><g clip-path="url(#clip6_936_281)"><path fill-rule="evenodd" clip-rule="evenodd" d="M921.333 53.3438H1041.33V66.6719H921.333V53.3438Z" fill="#FFE700"/><path fill-rule="evenodd" clip-rule="evenodd" d="M921.333 40H1041.33V53.3281H921.333V40Z" fill="black"/><path fill-rule="evenodd" clip-rule="evenodd" d="M921.333 26.6719H1041.33V40H921.333V26.6719Z" fill="#DE3908"/><path fill-rule="evenodd" clip-rule="evenodd" d="M921.333 13.3438H1041.33V26.6719H921.333V13.3438Z" fill="#FFE700"/><path fill-rule="evenodd" clip-rule="evenodd" d="M921.333 0H1041.33V13.3281H921.333V0Z" fill="black"/><path fill-rule="evenodd" clip-rule="evenodd" d="M993.786 40C993.786 43.3028 992.474 46.4703 990.139 48.8057C987.804 51.1411 984.636 52.4531 981.333 52.4531C978.031 52.4531 974.863 51.1411 972.528 48.8057C970.192 46.4703 968.88 43.3028 968.88 40C968.88 36.6972 970.192 33.5297 972.528 31.1943C974.863 28.8589 978.031 27.5469 981.333 27.5469C984.636 27.5469 987.804 28.8589 990.139 31.1943C992.474 33.5297 993.786 36.6972 993.786 40Z" fill="#FFFDFF" stroke="black" stroke-width="0.117188"/><path fill-rule="evenodd" clip-rule="evenodd" d="M979.146 30.4531L978.333 28.9687C978.646 28.6562 979.161 28.4062 980.005 28.4062L979.911 30.0469L979.13 30.4531H979.146Z" fill="#DE3108" stroke="black" stroke-width="0.117188"/><path fill-rule="evenodd" clip-rule="evenodd" d="M979.927 30.0469L980.036 28.4063C980.036 28.4063 981.708 28.3126 982.615 29.4063L981.724 30.6876L979.911 30.0626L979.927 30.0469Z" fill="#FFE700" stroke="black" stroke-width="0.117188"/><path fill-rule="evenodd" clip-rule="evenodd" d="M981.74 30.6719L982.568 29.3906C983.115 29.9687 983.349 30.375 983.427 31C983.443 31.0156 982.13 31.3281 982.13 31.3125L981.74 30.6719Z" fill="#DE3108" stroke="black" stroke-width="0.117188"/><path fill-rule="evenodd" clip-rule="evenodd" d="M979.552 51.7343C979.552 51.7343 981.099 49.9686 984.099 50.3436C983.646 49.6093 982.177 49.703 982.177 49.703C982.177 49.703 981.74 46.2655 982.083 46.078C982.427 45.8905 983.958 46.0936 983.958 46.0936C984.146 46.0936 984.49 45.5624 984.208 45.2186C983.943 44.8749 983.146 43.578 983.474 43.3124C983.802 43.0624 985.568 43.4686 985.568 43.4686L980.568 37.0624C980.568 37.0624 980.052 34.6405 981.083 33.4686C982.318 32.453 982.177 31.3436 982.146 31.3593C981.974 30.2343 980.271 29.4374 979.115 30.4686C978.443 31.2811 978.896 31.9061 978.896 31.9061C978.896 31.9061 977.099 32.3905 977.037 32.703C976.958 33.0155 979.052 32.6561 979.052 32.6561L978.849 34.078C978.849 34.078 974.787 37.7655 977.912 40.953L978.005 40.828C978.005 40.828 979.099 42.1718 980.24 42.4686C981.333 43.5624 981.224 43.4061 981.224 43.4061C981.224 43.4061 981.427 45.1405 981.224 45.4843C980.958 45.4061 978.208 45.2968 977.802 45.453C977.427 45.578 976.021 45.4999 976.365 47.8124L976.88 46.6405C976.88 46.6405 976.833 47.4686 977.177 47.7655C977.115 46.8905 977.505 46.2968 977.505 46.2968C977.505 46.2968 977.568 47.2655 977.787 47.3905C978.005 47.5468 978.005 45.828 979.193 45.9843C980.349 46.1249 981.208 46.078 981.208 46.078C981.208 46.078 981.599 49.4218 981.474 49.7343C980.63 49.5311 978.599 49.8124 978.474 50.328C979.662 50.2499 980.208 50.3905 980.208 50.3905C980.208 50.3905 979.255 51.2499 979.552 51.7343Z" fill="black" stroke="black" stroke-width="0.105469" stroke-linecap="round" stroke-linejoin="round"/><path fill-rule="evenodd" clip-rule="evenodd" d="M980.021 33.5625C980.021 33.5625 977.068 36.8125 978.349 39.2969C978.411 38.9531 978.38 38.7344 978.427 38.75C978.349 38.7031 978.786 39.0469 978.755 38.9844C978.755 38.7969 978.63 38.4063 978.63 38.4063L979.021 38.5156L978.786 38.0781L979.365 38.1406C979.365 38.1406 979.161 37.6094 979.224 37.6094L979.693 37.6406C978.849 36.1406 979.646 34.8906 980.021 33.5469V33.5625Z" fill="#9CA69C" stroke="#9CA69C" stroke-width="0.105469" stroke-linecap="round" stroke-linejoin="round"/><path fill-rule="evenodd" clip-rule="evenodd" d="M981.052 30.7656C981.052 30.7656 981.208 31.8906 980.583 32.2031C980.505 32.2813 980.115 32.4063 980.177 32.6406C980.24 32.9531 980.412 32.8906 980.646 32.8281C981.287 32.7188 982.037 31.3594 981.052 30.7656Z" fill="#9CA69C" stroke="#9CA69C" stroke-width="0.117188"/><path fill-rule="evenodd" clip-rule="evenodd" d="M979.958 31.7188C979.958 31.7809 979.934 31.8405 979.89 31.8845C979.846 31.9284 979.786 31.9531 979.724 31.9531C979.662 31.9531 979.602 31.9284 979.558 31.8845C979.514 31.8405 979.49 31.7809 979.49 31.7188C979.49 31.6566 979.514 31.597 979.558 31.553C979.602 31.5091 979.662 31.4844 979.724 31.4844C979.786 31.4844 979.846 31.5091 979.89 31.553C979.934 31.597 979.958 31.6566 979.958 31.7188Z" fill="white"/><path fill-rule="evenodd" clip-rule="evenodd" d="M979.005 32.6562C978.849 32.7969 978.036 33.6406 978.849 33.9531C979.677 33.7344 979.443 33.5781 979.63 33.3906C979.63 33 979.224 32.9063 979.005 32.6719V32.6562Z" fill="#DE3108" stroke="black" stroke-width="0.117188"/><path fill-rule="evenodd" clip-rule="evenodd" d="M980.802 40.7031C980.755 40.8906 980.568 41.5781 980.818 42.1094C981.536 41.7969 981.865 41.8906 982.099 42.0469C981.521 41.5781 981.287 41.375 980.802 40.7031Z" fill="#9CA69C" stroke="#9CA69C" stroke-width="0.105469" stroke-linecap="round" stroke-linejoin="round"/><path fill-rule="evenodd" clip-rule="evenodd" d="M982.021 43.9219L982.052 45.5156C982.052 45.5156 982.615 45.6094 982.865 45.5156C983.115 45.4219 982.865 44.4219 982.021 43.9219Z" fill="white" stroke="white" stroke-width="0.105469" stroke-linecap="round" stroke-linejoin="round"/><path fill-rule="evenodd" clip-rule="evenodd" d="M986.021 44.1251C986.021 44.1251 985.005 41.6564 982.396 41.0314C979.786 40.4064 980.13 37.6251 980.333 37.4532C980.458 37.2189 980.536 36.8439 981.286 37.2032C982.036 37.5626 985.505 39.297 986.005 39.3907C986.505 39.4845 986.068 44.1876 986.036 44.1251H986.021Z" fill="#9CA69C" stroke="black" stroke-width="0.117188"/><path fill-rule="evenodd" clip-rule="evenodd" d="M983.552 41.0156C983.505 41.0469 987.037 43.1094 985.974 44.875C986.974 44.2031 986.661 43.0469 986.661 43.0469C986.661 43.0469 987.474 45.1875 985.474 46.2344C985.693 46.4219 985.833 46.3906 985.833 46.3906L985.49 46.7188C985.49 46.7188 985.333 46.9844 986.677 46.3281C986.318 46.625 986.287 46.8438 986.287 46.8438C986.287 46.8438 986.38 47.125 987.255 46.3594C986.552 47.125 986.396 47.5156 986.396 47.5C988.318 47.3438 992.49 41.0938 985.083 39.2656L985.411 39.6094L983.536 41.0156H983.552Z" fill="#DE3108" stroke="black" stroke-width="0.105469" stroke-linejoin="round"/><path fill-rule="evenodd" clip-rule="evenodd" d="M983.708 40.4062C984.177 40.7499 984.349 40.8749 984.412 41.0312C983.974 40.9374 983.583 40.9687 983.583 40.9687C983.583 40.9687 982.63 40.0624 982.458 39.9843C982.333 39.9843 981.583 39.5155 981.583 39.5155C981.224 39.328 980.88 38.0624 982.24 38.4218C982.761 38.6937 983.298 38.9337 983.849 39.1405L985.521 39.6718L986.49 40.7499C986.49 40.7499 984.771 39.9062 984.552 39.8905C985.021 40.2655 985.287 40.7968 985.287 40.7968C984.74 40.6405 984.271 40.4843 983.708 40.4062Z" fill="white" stroke="black" stroke-width="0.105469" stroke-linecap="round" stroke-linejoin="round"/><path d="M977.021 32.7968C977.021 32.7968 978.662 32.3906 978.865 32.4531" stroke="white" stroke-width="0.105469" stroke-linecap="round"/><path fill-rule="evenodd" clip-rule="evenodd" d="M921.333 66.6719H1041.33V80H921.333V66.6719Z" fill="#DE3908"/></g></g><g opacity="0.2"><g clip-path="url(#clip7_936_281)"><path fill-rule="evenodd" clip-rule="evenodd" d="M1082.67 63.7175V16.3123L1117.96 40.0149L1082.65 63.7175H1082.67Z" fill="black"/><path fill-rule="evenodd" clip-rule="evenodd" d="M1106.74 80.0138L1146.37 53.3582H1202.65V79.9982H1106.74V80.0138Z" fill="#0000CC"/><path fill-rule="evenodd" clip-rule="evenodd" d="M1104.21 -2.67127e-06H1202.65V26.6869H1146.35C1146.35 26.6869 1104.73 -0.265622 1104.21 -2.67127e-06Z" fill="#FF0000"/><path fill-rule="evenodd" clip-rule="evenodd" d="M1082.67 9.99976V16.3121L1117.96 39.9991L1082.65 63.7174V70.0141L1127.1 40.0147L1082.65 9.99976H1082.67Z" fill="#FFCC00"/><path fill-rule="evenodd" clip-rule="evenodd" d="M1082.67 9.99979V0H1097.51L1144.57 31.8743H1202.66V48.1552H1144.57L1097.49 79.9983H1082.67V70.0141L1127.1 40.0148L1082.68 9.99979H1082.67Z" fill="#009933"/><path fill-rule="evenodd" clip-rule="evenodd" d="M1097.49 0H1106.74L1146.37 26.6713H1202.65V31.8743H1144.57L1097.49 0.0156247V0ZM1097.49 80.0139H1106.74L1146.37 53.3582H1202.65V48.1708H1144.57L1097.49 79.9983V80.0139Z" fill="white"/></g></g><path d="M491.682 113H493.01V103.192L498.786 113H500.386V101.56H499.058V111.016L493.49 101.56H491.682V113ZM503.196 113H504.524V104.632H503.196V113ZM503.836 102.888C504.316 102.888 504.716 102.488 504.716 102.008C504.716 101.528 504.316 101.128 503.836 101.128C503.356 101.128 502.956 101.528 502.956 102.008C502.956 102.488 503.356 102.888 503.836 102.888ZM510.586 116.056C512.922 116.056 514.57 114.872 514.586 112.44V104.632H513.258V105.976C512.778 105.16 511.914 104.488 510.522 104.488C508.218 104.488 506.618 106.376 506.618 108.648V108.76C506.618 111.064 508.234 112.728 510.426 112.728C511.642 112.728 512.778 111.96 513.258 111.144V112.36C513.258 114.152 512.218 114.936 510.57 114.936C509.146 114.936 508.346 114.44 508.154 113.48H506.794C507.018 114.888 508.106 116.056 510.586 116.056ZM510.57 111.624C509.162 111.624 507.994 110.536 507.994 108.712V108.584C507.994 106.824 508.986 105.592 510.65 105.592C512.282 105.592 513.306 106.68 513.306 108.552V108.664C513.306 110.536 512.122 111.624 510.57 111.624ZM520.698 113.144C522.586 113.144 523.978 112.264 524.266 110.584H522.938C522.762 111.56 522.01 112.04 520.714 112.04C519.002 112.04 518.09 110.984 518.026 109.08H524.33V108.648C524.33 105.656 522.506 104.488 520.57 104.488C518.266 104.488 516.65 106.248 516.65 108.776V108.904C516.65 111.48 518.33 113.144 520.698 113.144ZM518.074 108.008C518.298 106.52 519.21 105.592 520.57 105.592C521.946 105.592 522.842 106.28 522.97 108.008H518.074ZM526.367 113H527.695V108.408C527.695 106.344 528.767 105.816 530.447 105.736V104.488C528.943 104.536 528.223 105.192 527.695 106.136V104.632H526.367V113ZM532.415 113H533.743V104.632H532.415V113ZM533.055 102.888C533.535 102.888 533.935 102.488 533.935 102.008C533.935 101.528 533.535 101.128 533.055 101.128C532.575 101.128 532.175 101.528 532.175 102.008C532.175 102.488 532.575 102.888 533.055 102.888ZM538.557 113.144C539.789 113.144 540.541 112.728 541.165 111.944V113H542.493V107.48C542.493 105.144 541.037 104.488 539.437 104.488C537.821 104.488 536.301 105.192 536.125 107.096H537.453C537.581 106.072 538.221 105.592 539.373 105.592C540.653 105.592 541.165 106.152 541.165 107.48V108.088H539.965C537.821 108.088 535.773 108.744 535.773 110.68C535.773 112.392 537.005 113.144 538.557 113.144ZM538.685 112.088C537.517 112.088 537.101 111.544 537.101 110.68C537.101 109.448 538.333 109.032 540.013 109.032H541.165V110.072C541.165 111.368 540.093 112.088 538.685 112.088Z" fill="#203A6E"/><path d="M345.58 113.144C348.508 113.144 350.54 111.384 350.54 108.072V107.224H345.836V108.376H349.18C349.132 110.408 348.06 112.024 345.58 112.024C342.892 112.024 341.484 110.168 341.484 107.336V107.208C341.484 104.408 342.988 102.488 345.612 102.488C347.276 102.488 348.524 103.192 348.844 105.016H350.236C349.884 102.44 347.852 101.384 345.58 101.384C342.3 101.384 340.044 103.88 340.044 107.224V107.352C340.044 110.696 342.06 113.144 345.58 113.144ZM352.774 113H354.102V107.928C354.102 106.424 355.206 105.64 356.438 105.64C357.782 105.64 358.406 106.296 358.406 107.768V113H359.734V107.864C359.734 105.432 358.518 104.488 356.79 104.488C355.414 104.488 354.486 105.176 354.102 105.96V100.632H352.774V113ZM364.432 113.144C365.664 113.144 366.416 112.728 367.04 111.944V113H368.368V107.48C368.368 105.144 366.912 104.488 365.312 104.488C363.696 104.488 362.176 105.192 362 107.096H363.328C363.456 106.072 364.096 105.592 365.248 105.592C366.528 105.592 367.04 106.152 367.04 107.48V108.088H365.84C363.696 108.088 361.648 108.744 361.648 110.68C361.648 112.392 362.88 113.144 364.432 113.144ZM364.56 112.088C363.392 112.088 362.976 111.544 362.976 110.68C362.976 109.448 364.208 109.032 365.888 109.032H367.04V110.072C367.04 111.368 365.968 112.088 364.56 112.088ZM370.977 113H372.305V107.928C372.305 106.424 373.409 105.64 374.641 105.64C375.985 105.64 376.609 106.296 376.609 107.768V113H377.937V107.864C377.937 105.432 376.721 104.488 374.993 104.488C373.617 104.488 372.689 105.176 372.305 105.96V104.632H370.977V113ZM382.635 113.144C383.867 113.144 384.619 112.728 385.243 111.944V113H386.571V107.48C386.571 105.144 385.115 104.488 383.515 104.488C381.899 104.488 380.379 105.192 380.203 107.096H381.531C381.659 106.072 382.299 105.592 383.451 105.592C384.731 105.592 385.243 106.152 385.243 107.48V108.088H384.043C381.899 108.088 379.851 108.744 379.851 110.68C379.851 112.392 381.083 113.144 382.635 113.144ZM382.763 112.088C381.595 112.088 381.179 111.544 381.179 110.68C381.179 109.448 382.411 109.032 384.091 109.032H385.243V110.072C385.243 111.368 384.171 112.088 382.763 112.088Z" fill="#203A6E"/><path d="M651.526 113H652.918V107.416L658.022 113H659.702L654.358 107.112L659.446 101.544H657.894L652.918 107.064V101.56H651.526V113ZM664.229 113.144C666.117 113.144 667.509 112.264 667.797 110.584H666.469C666.293 111.56 665.541 112.04 664.245 112.04C662.533 112.04 661.621 110.984 661.557 109.08H667.861V108.648C667.861 105.656 666.037 104.488 664.101 104.488C661.797 104.488 660.181 106.248 660.181 108.776V108.904C660.181 111.48 661.861 113.144 664.229 113.144ZM661.605 108.008C661.829 106.52 662.741 105.592 664.101 105.592C665.477 105.592 666.373 106.28 666.501 108.008H661.605ZM669.899 113H671.227V107.928C671.227 106.424 672.331 105.64 673.563 105.64C674.907 105.64 675.531 106.296 675.531 107.768V113H676.859V107.864C676.859 105.432 675.643 104.488 673.915 104.488C672.539 104.488 671.611 105.176 671.227 105.96V104.632H669.899V113ZM679.979 115.912H681.323L685.947 104.632H684.587L682.267 110.632L679.707 104.632H678.283L681.563 112.136L679.979 115.912ZM689.714 113.144C690.946 113.144 691.698 112.728 692.322 111.944V113H693.65V107.48C693.65 105.144 692.194 104.488 690.594 104.488C688.978 104.488 687.458 105.192 687.282 107.096H688.61C688.738 106.072 689.378 105.592 690.53 105.592C691.81 105.592 692.322 106.152 692.322 107.48V108.088H691.122C688.978 108.088 686.93 108.744 686.93 110.68C686.93 112.392 688.162 113.144 689.714 113.144ZM689.842 112.088C688.674 112.088 688.258 111.544 688.258 110.68C688.258 109.448 689.49 109.032 691.17 109.032H692.322V110.072C692.322 111.368 691.25 112.088 689.842 112.088Z" fill="#203A6E"/><path d="M798.784 113H800.176V108.024H801.936L805.344 113H806.896L803.392 107.928C804.96 107.624 806.224 106.696 806.224 104.808V104.744C806.224 102.456 804.416 101.56 802.224 101.56H798.784V113ZM800.176 106.92V102.68H802.32C803.872 102.68 804.832 103.192 804.832 104.744V104.808C804.832 106.216 803.952 106.92 802.32 106.92H800.176ZM810.258 113H811.714L813.666 106.728L815.41 113H816.882L819.49 104.632H818.13L816.162 111.368L814.258 104.632H813.106L811.074 111.368L809.122 104.632H807.682L810.258 113ZM823.221 113.144C824.453 113.144 825.205 112.728 825.829 111.944V113H827.157V107.48C827.157 105.144 825.701 104.488 824.101 104.488C822.485 104.488 820.965 105.192 820.789 107.096H822.117C822.245 106.072 822.885 105.592 824.037 105.592C825.317 105.592 825.829 106.152 825.829 107.48V108.088H824.629C822.485 108.088 820.437 108.744 820.437 110.68C820.437 112.392 821.669 113.144 823.221 113.144ZM823.349 112.088C822.181 112.088 821.765 111.544 821.765 110.68C821.765 109.448 822.997 109.032 824.677 109.032H825.829V110.072C825.829 111.368 824.757 112.088 823.349 112.088ZM829.766 113H831.094V107.928C831.094 106.424 832.198 105.64 833.43 105.64C834.774 105.64 835.398 106.296 835.398 107.768V113H836.726V107.864C836.726 105.432 835.51 104.488 833.782 104.488C832.406 104.488 831.478 105.176 831.094 105.96V104.632H829.766V113ZM842.48 113.144C843.696 113.144 844.864 112.376 845.344 111.56V113H846.672V100.632H845.344V105.976C844.864 105.16 844 104.488 842.608 104.488C840.304 104.488 838.704 106.296 838.704 108.856V108.984C838.704 111.592 840.288 113.144 842.48 113.144ZM842.624 112.04C841.216 112.04 840.08 111.032 840.08 108.92V108.792C840.08 106.76 841.072 105.592 842.736 105.592C844.368 105.592 845.392 106.6 845.392 108.744V108.872C845.392 111.016 844.176 112.04 842.624 112.04ZM851.456 113.144C852.688 113.144 853.44 112.728 854.064 111.944V113H855.392V107.48C855.392 105.144 853.936 104.488 852.336 104.488C850.72 104.488 849.2 105.192 849.024 107.096H850.352C850.48 106.072 851.12 105.592 852.272 105.592C853.552 105.592 854.064 106.152 854.064 107.48V108.088H852.864C850.72 108.088 848.672 108.744 848.672 110.68C848.672 112.392 849.904 113.144 851.456 113.144ZM851.584 112.088C850.416 112.088 850 111.544 850 110.68C850 109.448 851.232 109.032 852.912 109.032H854.064V110.072C854.064 111.368 852.992 112.088 851.584 112.088Z" fill="#203A6E"/><defs><clipPath id="clip0_936_281"><rect x="-3.05176e-05" width="106.667" height="80" rx="8" fill="white"/></clipPath><clipPath id="clip1_936_281"><rect x="154.667" width="106.667" height="80" rx="8" fill="white"/></clipPath><clipPath id="clip2_936_281"><rect x="309.333" width="106.667" height="80" rx="8" fill="white"/></clipPath><clipPath id="clip3_936_281"><rect x="464" width="106.667" height="80" rx="8" fill="white"/></clipPath><clipPath id="clip4_936_281"><rect x="618.667" width="106.667" height="80" rx="8" fill="white"/></clipPath><clipPath id="clip5_936_281"><rect x="773.333" width="106.667" height="80" rx="8" fill="white"/></clipPath><clipPath id="clip6_936_281"><rect x="928" width="106.667" height="80" rx="8" fill="white"/></clipPath><clipPath id="clip7_936_281"><rect x="1082.67" width="106.667" height="80" rx="8" fill="white"/></clipPath></defs></svg>