<svg width="328" height="76" viewBox="0 0 328 76" fill="none" xmlns="http://www.w3.org/2000/svg" class="d-block d-sm-none mx-auto"><g id="Group 1000001847"><g id="ghana"><g id="Nigeria (NG)"><g id="Group"><path id="Vector" fill-rule="evenodd" clip-rule="evenodd" d="M88 0H152V48H88V0Z" fill="white"/><path id="Vector_2" fill-rule="evenodd" clip-rule="evenodd" d="M130.66 0H152V48H130.66V0ZM88 0H109.33V48H88V0Z" fill="#008753"/></g></g><path id="Nigeria" d="M101.512 72H102.508V64.644L106.84 72H108.04V63.42H107.044V70.512L102.868 63.42H101.512V72ZM110.147 72H111.143V65.724H110.147V72ZM110.627 64.416C110.987 64.416 111.287 64.116 111.287 63.756C111.287 63.396 110.987 63.096 110.627 63.096C110.267 63.096 109.967 63.396 109.967 63.756C109.967 64.116 110.267 64.416 110.627 64.416ZM115.69 74.292C117.442 74.292 118.678 73.404 118.69 71.58V65.724H117.694V66.732C117.334 66.12 116.686 65.616 115.642 65.616C113.914 65.616 112.714 67.032 112.714 68.736V68.82C112.714 70.548 113.926 71.796 115.57 71.796C116.482 71.796 117.334 71.22 117.694 70.608V71.52C117.694 72.864 116.914 73.452 115.678 73.452C114.61 73.452 114.01 73.08 113.866 72.36H112.846C113.014 73.416 113.83 74.292 115.69 74.292ZM115.678 70.968C114.622 70.968 113.746 70.152 113.746 68.784V68.688C113.746 67.368 114.49 66.444 115.738 66.444C116.962 66.444 117.73 67.26 117.73 68.664V68.748C117.73 70.152 116.842 70.968 115.678 70.968ZM123.273 72.108C124.689 72.108 125.733 71.448 125.949 70.188H124.953C124.821 70.92 124.257 71.28 123.285 71.28C122.001 71.28 121.317 70.488 121.269 69.06H125.997V68.736C125.997 66.492 124.629 65.616 123.177 65.616C121.449 65.616 120.237 66.936 120.237 68.832V68.928C120.237 70.86 121.497 72.108 123.273 72.108ZM121.305 68.256C121.473 67.14 122.157 66.444 123.177 66.444C124.209 66.444 124.881 66.96 124.977 68.256H121.305ZM127.526 72H128.522V68.556C128.522 67.008 129.326 66.612 130.586 66.552V65.616C129.458 65.652 128.918 66.144 128.522 66.852V65.724H127.526V72ZM132.061 72H133.057V65.724H132.061V72ZM132.541 64.416C132.901 64.416 133.201 64.116 133.201 63.756C133.201 63.396 132.901 63.096 132.541 63.096C132.181 63.096 131.881 63.396 131.881 63.756C131.881 64.116 132.181 64.416 132.541 64.416ZM136.668 72.108C137.592 72.108 138.156 71.796 138.624 71.208V72H139.62V67.86C139.62 66.108 138.528 65.616 137.328 65.616C136.116 65.616 134.976 66.144 134.844 67.572H135.84C135.936 66.804 136.416 66.444 137.28 66.444C138.24 66.444 138.624 66.864 138.624 67.86V68.316H137.724C136.116 68.316 134.58 68.808 134.58 70.26C134.58 71.544 135.504 72.108 136.668 72.108ZM136.764 71.316C135.888 71.316 135.576 70.908 135.576 70.26C135.576 69.336 136.5 69.024 137.76 69.024H138.624V69.804C138.624 70.776 137.82 71.316 136.764 71.316Z" fill="#203A6E"/></g><g id="kenya"><g id="Kenya (KE)"><g clip-path="url(#clip0_937_282)"><path id="Vector_3" d="M176 0H240V48H176V0Z" fill="white"/><path id="Vector_4" d="M176 0H240V14.4H176V0Z" fill="black"/><path id="Vector_5" d="M176 33.6001H240V48.0001H176V33.6001Z" fill="#006600"/><g id="b"><path id="Vector_6" d="M199.42 38.2502L199.96 38.5502L213.97 14.2502C214.78 14.0702 215.23 13.2902 215.68 12.5102C215.98 11.9702 217.18 9.9002 217.69 7.2002C216.267 8.46497 215.061 9.95477 214.12 11.6102C213.67 12.3902 213.22 13.1702 213.43 13.9802L199.42 38.2502Z" fill="black" stroke="black" stroke-width="0.375" stroke-miterlimit="10"/><path id="Vector_7" d="M199.42 38.2502L199.96 38.5502L213.97 14.2502C214.78 14.0702 215.23 13.2902 215.68 12.5102C215.98 11.9702 217.18 9.9002 217.69 7.2002C216.267 8.46497 215.061 9.95477 214.12 11.6102C213.67 12.3902 213.22 13.1702 213.43 13.9802L199.42 38.2502Z" fill="white"/></g><g id="Group_2"><path id="Vector_8" d="M216.58 38.2502L216.04 38.5502L202.03 14.2502C201.22 14.0702 200.77 13.2902 200.32 12.5102C200.02 11.9702 198.82 9.9002 198.31 7.2002C199.733 8.46497 200.939 9.95477 201.88 11.6102C202.33 12.3902 202.78 13.1702 202.57 13.9802L216.58 38.2502Z" fill="black" stroke="black" stroke-width="0.375" stroke-miterlimit="10"/><path id="Vector_9" d="M216.58 38.2502L216.04 38.5502L202.03 14.2502C201.22 14.0702 200.77 13.2902 200.32 12.5102C200.02 11.9702 198.82 9.9002 198.31 7.2002C199.733 8.46497 200.939 9.95477 201.88 11.6102C202.33 12.3902 202.78 13.1702 202.57 13.9802L216.58 38.2502Z" fill="white"/></g><path id="Vector_10" d="M240.05 16.8001H213.7C212.8 14.4001 209.8 9.6001 208 9.6001C206.2 9.6001 203.2 14.4001 202.3 16.8001H175.98V31.2001H202.3C203.2 33.6001 206.2 38.4001 208 38.4001C209.8 38.4001 212.8 33.6001 213.7 31.2001H240.05V16.8001Z" fill="#BB0000"/><path id="c" d="M213.7 31.1998C214.6 28.7998 215.2 26.3998 215.2 23.9998C215.2 21.5998 214.6 19.1998 213.7 16.7998C212.8 19.1998 212.2 21.5998 212.2 23.9998C212.2 26.3998 212.8 28.7998 213.7 31.1998Z" fill="black"/><path id="Vector_11" d="M202.3 31.1998C201.4 28.7998 200.8 26.3998 200.8 23.9998C200.8 21.5998 201.4 19.1998 202.3 16.7998C203.2 19.1998 203.8 21.5998 203.8 23.9998C203.8 26.3998 203.2 28.7998 202.3 31.1998Z" fill="black"/><g id="Group_3"><path id="Vector_12" d="M208 25.8002C208.663 25.8002 209.2 24.9943 209.2 24.0002C209.2 23.0061 208.663 22.2002 208 22.2002C207.337 22.2002 206.8 23.0061 206.8 24.0002C206.8 24.9943 207.337 25.8002 208 25.8002Z" fill="white"/><path id="d" d="M208.3 25.7402C208.3 25.7402 209.5 28.1402 209.5 32.0402C209.5 35.9402 208.3 38.3402 208.3 38.3402V25.7402Z" fill="white"/><path id="Vector_13" d="M207.7 22.2603C207.7 22.2603 206.5 19.8603 206.5 15.9603C206.5 12.0603 207.7 9.66025 207.7 9.66025V22.2603Z" fill="white"/><path id="Vector_14" d="M207.7 25.7402C207.7 25.7402 206.5 28.1402 206.5 32.0402C206.5 35.9402 207.7 38.3402 207.7 38.3402V25.7402Z" fill="white"/><path id="Vector_15" d="M208.3 22.2603C208.3 22.2603 209.5 19.8603 209.5 15.9603C209.5 12.0603 208.3 9.66025 208.3 9.66025V22.2603Z" fill="white"/></g></g></g><path id="Kenya" d="M192.269 72H193.313V67.812L197.141 72H198.401L194.393 67.584L198.209 63.408H197.045L193.313 67.548V63.42H192.269V72ZM201.797 72.108C203.213 72.108 204.257 71.448 204.473 70.188H203.477C203.345 70.92 202.781 71.28 201.809 71.28C200.525 71.28 199.841 70.488 199.793 69.06H204.521V68.736C204.521 66.492 203.153 65.616 201.701 65.616C199.973 65.616 198.761 66.936 198.761 68.832V68.928C198.761 70.86 200.021 72.108 201.797 72.108ZM199.829 68.256C199.997 67.14 200.681 66.444 201.701 66.444C202.733 66.444 203.405 66.96 203.501 68.256H199.829ZM206.049 72H207.045V68.196C207.045 67.068 207.873 66.48 208.797 66.48C209.805 66.48 210.273 66.972 210.273 68.076V72H211.269V68.148C211.269 66.324 210.357 65.616 209.061 65.616C208.029 65.616 207.333 66.132 207.045 66.72V65.724H206.049V72ZM213.609 74.184H214.617L218.085 65.724H217.065L215.325 70.224L213.405 65.724H212.337L214.797 71.352L213.609 74.184ZM220.91 72.108C221.834 72.108 222.398 71.796 222.866 71.208V72H223.862V67.86C223.862 66.108 222.77 65.616 221.57 65.616C220.358 65.616 219.218 66.144 219.086 67.572H220.082C220.178 66.804 220.658 66.444 221.522 66.444C222.482 66.444 222.866 66.864 222.866 67.86V68.316H221.966C220.358 68.316 218.822 68.808 218.822 70.26C218.822 71.544 219.746 72.108 220.91 72.108ZM221.006 71.316C220.13 71.316 219.818 70.908 219.818 70.26C219.818 69.336 220.742 69.024 222.002 69.024H222.866V69.804C222.866 70.776 222.062 71.316 221.006 71.316Z" fill="#203A6E"/></g><g id="rwanda"><g id="Rwanda (RW)"><path id="Vector_16" d="M264 0H328V48H264V0Z" fill="#20603D"/><path id="Vector_17" d="M264 0H328V36H264V0Z" fill="#FAD201"/><path id="Vector_18" d="M264 0H328V24H264V0Z" fill="#00A1DE"/><g id="Group_4"><g id="b_2"><path id="a" d="M322.84 12.5398L317.48 12.8531L322.573 14.5465L317.32 13.4598L321.807 16.4065L317.007 13.9932L320.567 18.0132L316.56 14.4465L318.973 19.2465L316.02 14.7598L317.1 20.0065L315.413 14.9198L315.1 20.2798L315.033 12.4731L322.84 12.5398Z" fill="#E5BE01"/><path id="Vector_19" d="M322.84 12.5398L317.48 12.2264L322.573 10.5331L317.32 11.6198L321.807 8.67309L317.007 11.0864L320.567 7.06642L316.56 10.6331L318.973 5.83308L316.02 10.3198L317.1 5.07308L315.413 10.1598L315.1 4.79974L315.033 12.6064L322.84 12.5398Z" fill="#E5BE01"/></g><g id="Group_5"><path id="a_2" d="M307.36 12.5398L312.72 12.8531L307.626 14.5465L312.88 13.4598L308.393 16.4065L313.193 13.9932L309.633 18.0132L313.64 14.4465L311.226 19.2465L314.18 14.7598L313.1 20.0065L314.787 14.9198L315.1 20.2798L315.167 12.4731L307.36 12.5398Z" fill="#E5BE01"/><path id="Vector_20" d="M307.36 12.5398L312.72 12.2264L307.626 10.5331L312.88 11.6198L308.393 8.67309L313.193 11.0864L309.633 7.06642L313.64 10.6331L311.226 5.83308L314.18 10.3198L313.1 5.07308L314.787 10.1598L315.1 4.79974L315.167 12.6064L307.36 12.5398Z" fill="#E5BE01"/></g><path id="Vector_21" d="M315.1 14.8263C316.363 14.8263 317.386 13.8025 317.386 12.5396C317.386 11.2767 316.363 10.2529 315.1 10.2529C313.837 10.2529 312.813 11.2767 312.813 12.5396C312.813 13.8025 313.837 14.8263 315.1 14.8263Z" fill="#E5BE01" stroke="#00A1DE" stroke-width="0.283335"/></g></g><path id="Rwanda" d="M275.338 72H276.382V68.268H277.702L280.258 72H281.422L278.794 68.196C279.97 67.968 280.918 67.272 280.918 65.856V65.808C280.918 64.092 279.562 63.42 277.918 63.42H275.338V72ZM276.382 67.44V64.26H277.99C279.154 64.26 279.874 64.644 279.874 65.808V65.856C279.874 66.912 279.214 67.44 277.99 67.44H276.382ZM283.944 72H285.036L286.5 67.296L287.808 72H288.912L290.868 65.724H289.848L288.372 70.776L286.944 65.724H286.08L284.556 70.776L283.092 65.724H282.012L283.944 72ZM293.666 72.108C294.59 72.108 295.154 71.796 295.622 71.208V72H296.618V67.86C296.618 66.108 295.526 65.616 294.326 65.616C293.114 65.616 291.974 66.144 291.842 67.572H292.838C292.934 66.804 293.414 66.444 294.278 66.444C295.238 66.444 295.622 66.864 295.622 67.86V68.316H294.722C293.114 68.316 291.578 68.808 291.578 70.26C291.578 71.544 292.502 72.108 293.666 72.108ZM293.762 71.316C292.886 71.316 292.574 70.908 292.574 70.26C292.574 69.336 293.498 69.024 294.758 69.024H295.622V69.804C295.622 70.776 294.818 71.316 293.762 71.316ZM298.574 72H299.57V68.196C299.57 67.068 300.398 66.48 301.322 66.48C302.33 66.48 302.798 66.972 302.798 68.076V72H303.794V68.148C303.794 66.324 302.882 65.616 301.586 65.616C300.554 65.616 299.858 66.132 299.57 66.72V65.724H298.574V72ZM308.11 72.108C309.022 72.108 309.898 71.532 310.258 70.92V72H311.254V62.724H310.258V66.732C309.898 66.12 309.25 65.616 308.206 65.616C306.478 65.616 305.278 66.972 305.278 68.892V68.988C305.278 70.944 306.466 72.108 308.11 72.108ZM308.218 71.28C307.162 71.28 306.31 70.524 306.31 68.94V68.844C306.31 67.32 307.054 66.444 308.302 66.444C309.526 66.444 310.294 67.2 310.294 68.808V68.904C310.294 70.512 309.382 71.28 308.218 71.28ZM314.842 72.108C315.766 72.108 316.33 71.796 316.798 71.208V72H317.794V67.86C317.794 66.108 316.702 65.616 315.502 65.616C314.29 65.616 313.15 66.144 313.018 67.572H314.014C314.11 66.804 314.59 66.444 315.454 66.444C316.414 66.444 316.798 66.864 316.798 67.86V68.316H315.898C314.29 68.316 312.754 68.808 312.754 70.26C312.754 71.544 313.678 72.108 314.842 72.108ZM314.938 71.316C314.062 71.316 313.75 70.908 313.75 70.26C313.75 69.336 314.674 69.024 315.934 69.024H316.798V69.804C316.798 70.776 315.994 71.316 314.938 71.316Z" fill="#203A6E"/></g><g id="ghana_2"><g id="Ghana (GH)"><path id="Vector_22" d="M0 0H64V48H0V0Z" fill="#006B3F"/><path id="Vector_23" d="M0 0H64V32H0V0Z" fill="#FCD116"/><path id="Vector_24" d="M0 0H64V16H0V0Z" fill="#CE1126"/><path id="Vector_25" d="M32.0001 16L37.2001 32L23.5901 22.11H40.4001L26.8001 32L32.0001 16Z" fill="black"/></g><path id="Ghana" d="M19.06 72.108C21.256 72.108 22.78 70.788 22.78 68.304V67.668H19.252V68.532H21.76C21.724 70.056 20.92 71.268 19.06 71.268C17.044 71.268 15.988 69.876 15.988 67.752V67.656C15.988 65.556 17.116 64.116 19.084 64.116C20.332 64.116 21.268 64.644 21.508 66.012H22.552C22.288 64.08 20.764 63.288 19.06 63.288C16.6 63.288 14.908 65.16 14.908 67.668V67.764C14.908 70.272 16.42 72.108 19.06 72.108ZM24.4553 72H25.4513V68.196C25.4513 67.068 26.2793 66.48 27.2033 66.48C28.2113 66.48 28.6793 66.972 28.6793 68.076V72H29.6753V68.148C29.6753 66.324 28.7633 65.616 27.4673 65.616C26.4353 65.616 25.7393 66.132 25.4513 66.72V62.724H24.4553V72ZM33.1991 72.108C34.1231 72.108 34.6871 71.796 35.1551 71.208V72H36.1511V67.86C36.1511 66.108 35.0591 65.616 33.8591 65.616C32.6471 65.616 31.5071 66.144 31.3751 67.572H32.3711C32.4671 66.804 32.9471 66.444 33.8111 66.444C34.7711 66.444 35.1551 66.864 35.1551 67.86V68.316H34.2551C32.6471 68.316 31.1111 68.808 31.1111 70.26C31.1111 71.544 32.0351 72.108 33.1991 72.108ZM33.2951 71.316C32.4191 71.316 32.1071 70.908 32.1071 70.26C32.1071 69.336 33.0311 69.024 34.2911 69.024H35.1551V69.804C35.1551 70.776 34.3511 71.316 33.2951 71.316ZM38.1076 72H39.1036V68.196C39.1036 67.068 39.9316 66.48 40.8556 66.48C41.8636 66.48 42.3316 66.972 42.3316 68.076V72H43.3276V68.148C43.3276 66.324 42.4156 65.616 41.1196 65.616C40.0876 65.616 39.3916 66.132 39.1036 66.72V65.724H38.1076V72ZM46.8515 72.108C47.7755 72.108 48.3395 71.796 48.8075 71.208V72H49.8035V67.86C49.8035 66.108 48.7115 65.616 47.5115 65.616C46.2995 65.616 45.1595 66.144 45.0275 67.572H46.0235C46.1195 66.804 46.5995 66.444 47.4635 66.444C48.4235 66.444 48.8075 66.864 48.8075 67.86V68.316H47.9075C46.2995 68.316 44.7635 68.808 44.7635 70.26C44.7635 71.544 45.6875 72.108 46.8515 72.108ZM46.9475 71.316C46.0715 71.316 45.7595 70.908 45.7595 70.26C45.7595 69.336 46.6835 69.024 47.9435 69.024H48.8075V69.804C48.8075 70.776 48.0035 71.316 46.9475 71.316Z" fill="#203A6E"/></g></g><defs><clipPath id="clip0_937_282"><rect x="176" width="64" height="48" rx="4" fill="white"/></clipPath></defs></svg>