<svg width="128" height="42" viewBox="0 0 128 42" fill="none" xmlns="http://www.w3.org/2000/svg" class="default" data-v-74300322=""><path d="M46.6336 0.922686C46.6402 0.922686 46.646 0.924287 46.6511 0.927489C46.6561 0.930691 46.6601 0.935236 46.6628 0.941124C46.6656 0.947011 46.667 0.953829 46.667 0.961576C46.667 0.969426 46.6656 0.976346 46.6628 0.982337C46.6601 0.988225 46.6561 0.992821 46.6511 0.996127C46.646 0.999432 46.6402 1.00108 46.6336 1.00108C46.6277 1.00108 46.6225 0.999793 46.6181 0.997211C46.6137 0.994629 46.6104 0.990962 46.6082 0.986211V0.994577C46.6082 0.996436 46.6076 0.997934 46.6065 0.99907C46.6054 1.00021 46.6039 1.00077 46.602 1.00077C46.6 1.00077 46.5984 1.00021 46.5973 0.99907C46.5962 0.997934 46.5956 0.996436 46.5956 0.994577V0.896037C46.5956 0.894281 46.5962 0.892835 46.5973 0.891699C46.5984 0.890563 46.6 0.889995 46.602 0.889995C46.6039 0.889995 46.6054 0.890563 46.6065 0.891699C46.6076 0.892732 46.6082 0.894178 46.6082 0.896037V0.93756C46.6104 0.932809 46.6137 0.929142 46.6181 0.92656C46.6225 0.923977 46.6277 0.922686 46.6336 0.922686ZM46.6311 0.990704C46.6384 0.990704 46.6441 0.988173 46.6481 0.983112C46.6522 0.977947 46.6542 0.970769 46.6542 0.961576C46.6542 0.952589 46.6522 0.945617 46.6481 0.940659C46.6441 0.935701 46.6384 0.933222 46.6311 0.933222C46.6238 0.933222 46.6181 0.935701 46.614 0.940659C46.6101 0.945617 46.6082 0.952692 46.6082 0.961885C46.6082 0.971078 46.6101 0.978205 46.614 0.983267C46.6181 0.988225 46.6238 0.990704 46.6311 0.990704ZM46.7442 0.982492C46.7453 0.982492 46.7463 0.982957 46.7471 0.983887C46.748 0.984816 46.7484 0.986004 46.7484 0.98745C46.7484 0.990032 46.7466 0.992408 46.743 0.994577C46.7392 0.996746 46.7353 0.998399 46.7312 0.999535C46.727 1.00057 46.723 1.00108 46.7191 1.00108C46.7074 1.00108 46.6982 0.997624 46.6914 0.990704C46.6846 0.983783 46.6813 0.974229 46.6813 0.96204C46.6813 0.954294 46.6828 0.947476 46.6858 0.941589C46.6888 0.935598 46.693 0.93095 46.6983 0.927644C46.7038 0.924339 46.71 0.922686 46.7169 0.922686C46.7267 0.922686 46.7345 0.925888 46.7403 0.932292C46.7461 0.938696 46.749 0.947373 46.749 0.958322C46.749 0.960388 46.7486 0.961885 46.7478 0.962815C46.7469 0.963745 46.7456 0.964209 46.7437 0.964209H46.6938C46.6948 0.981976 46.7032 0.990859 46.7191 0.990859C46.7231 0.990859 46.7266 0.990342 46.7295 0.989309C46.7324 0.988173 46.7355 0.986675 46.7388 0.984816C46.7415 0.983267 46.7433 0.982492 46.7442 0.982492ZM46.7171 0.932447C46.7105 0.932447 46.7052 0.934513 46.7011 0.938645C46.6972 0.942777 46.6949 0.948612 46.6941 0.956153H46.738C46.7378 0.948509 46.7359 0.942673 46.7323 0.938645C46.7286 0.934513 46.7236 0.932447 46.7171 0.932447ZM46.8054 0.922686C46.8235 0.922686 46.8326 0.932654 46.8326 0.952589V0.994577C46.8326 0.99654 46.832 0.998089 46.8309 0.999225C46.8298 1.00026 46.8283 1.00077 46.8264 1.00077C46.8244 1.00077 46.8229 1.00026 46.8217 0.999225C46.8206 0.998089 46.82 0.99654 46.82 0.994577V0.953364C46.82 0.94634 46.8186 0.941227 46.8158 0.938025C46.8131 0.934823 46.8088 0.933222 46.8028 0.933222C46.7959 0.933222 46.7904 0.93534 46.7862 0.939574C46.7821 0.943809 46.78 0.949542 46.78 0.956773V0.994577C46.78 0.99654 46.7795 0.998089 46.7783 0.999225C46.7773 1.00026 46.7758 1.00077 46.7738 1.00077C46.7719 1.00077 46.7703 1.00026 46.7692 0.999225C46.7681 0.998089 46.7675 0.99654 46.7675 0.994577V0.929194C46.7675 0.927334 46.7681 0.925837 46.7692 0.9247C46.7703 0.923564 46.7719 0.922996 46.7738 0.922996C46.7757 0.922996 46.7771 0.923564 46.7782 0.9247C46.7793 0.925837 46.7799 0.927283 46.7799 0.929039V0.936941C46.7824 0.932292 46.7858 0.928781 46.7903 0.926405C46.7947 0.923926 46.7998 0.922686 46.8054 0.922686ZM46.8904 0.990859C46.894 0.991169 46.8958 0.992821 46.8958 0.995817C46.8958 0.997573 46.8952 0.998915 46.8938 0.999845C46.8926 1.00067 46.8907 1.00098 46.8881 1.00077L46.8839 1.00046C46.8756 0.999845 46.8695 0.997366 46.8656 0.993028C46.8617 0.98869 46.8597 0.982131 46.8597 0.973351V0.934462H46.8494C46.8476 0.934462 46.8462 0.934048 46.8452 0.933222C46.8442 0.932292 46.8438 0.931105 46.8438 0.929658C46.8438 0.928109 46.8442 0.92687 46.8452 0.92594C46.8462 0.92501 46.8476 0.924546 46.8494 0.924546H46.8597V0.907038C46.8597 0.905075 46.8603 0.903577 46.8614 0.902544C46.8626 0.901408 46.8641 0.90084 46.8661 0.90084C46.8679 0.90084 46.8694 0.901408 46.8706 0.902544C46.8717 0.903577 46.8723 0.905075 46.8723 0.907038V0.924546H46.8895C46.8911 0.924546 46.8924 0.92501 46.8934 0.92594C46.8944 0.92687 46.8949 0.928109 46.8949 0.929658C46.8949 0.931105 46.8944 0.932292 46.8934 0.933222C46.8924 0.934048 46.8911 0.934462 46.8895 0.934462H46.8723V0.973971C46.8723 0.979652 46.8734 0.983783 46.8757 0.986366C46.8781 0.988845 46.8816 0.990239 46.8862 0.990549L46.8904 0.990859ZM46.9395 1.00108C46.9324 1.00108 46.9261 0.999484 46.9206 0.996282C46.9152 0.993079 46.911 0.988535 46.908 0.982647C46.9052 0.976656 46.9037 0.969736 46.9037 0.961885C46.9037 0.954035 46.9052 0.947166 46.908 0.941279C46.911 0.935288 46.9152 0.930691 46.9206 0.927489C46.9261 0.924287 46.9324 0.922686 46.9395 0.922686C46.9466 0.922686 46.9529 0.924287 46.9584 0.927489C46.9639 0.930691 46.9681 0.935288 46.971 0.941279C46.9739 0.947166 46.9754 0.954035 46.9754 0.961885C46.9754 0.969736 46.9739 0.976656 46.971 0.982647C46.9681 0.988535 46.9639 0.993079 46.9584 0.996282C46.9529 0.999484 46.9466 1.00108 46.9395 1.00108ZM46.9395 0.990704C46.9469 0.990704 46.9526 0.988276 46.9565 0.983422C46.9606 0.978464 46.9626 0.971285 46.9626 0.961885C46.9626 0.952692 46.9606 0.945617 46.9565 0.940659C46.9525 0.935598 46.9468 0.933067 46.9395 0.933067C46.9322 0.933067 46.9265 0.935598 46.9225 0.940659C46.9184 0.945617 46.9164 0.952692 46.9164 0.961885C46.9164 0.971182 46.9184 0.978309 46.9223 0.983267C46.9263 0.988225 46.9321 0.990704 46.9395 0.990704Z" data-v-74300322=""/><path d="M57.6027 16.9499C58.9444 16.9499 60.1285 17.2746 61.1556 17.9249C62.1828 18.5748 62.9843 19.4978 63.5609 20.6929C64.137 21.8881 64.4255 23.2829 64.4255 24.8762C64.4255 26.4485 64.137 27.8433 63.5609 29.0595C62.9843 30.2756 62.1772 31.2191 61.1396 31.89C60.102 32.5608 58.9228 32.8965 57.6027 32.8965C56.4501 32.8965 55.4335 32.6504 54.5528 32.1571C53.6728 31.6643 53.0016 30.9564 52.5406 30.0339V31.2921C52.5406 31.7534 52.3991 32.1256 52.116 32.4087C51.833 32.6919 51.4504 32.8335 50.9684 32.8335C50.4863 32.8335 50.0988 32.6919 49.8053 32.4087C49.5117 32.1256 49.3652 31.7534 49.3652 31.2921V11.8536C49.3652 11.3923 49.5173 11.0251 49.8213 10.7525C50.1254 10.4798 50.5184 10.3438 51.0005 10.3438C51.4615 10.3438 51.8335 10.4748 52.1166 10.737C52.3996 10.9991 52.5411 11.3503 52.5411 11.7905V19.8429C53.0022 18.9204 53.6728 18.207 54.5534 17.7043C55.4335 17.201 56.4506 16.9494 57.6033 16.9494L57.6027 16.9499ZM56.8481 30.3807C58.2102 30.3807 59.2744 29.8984 60.0395 28.9339C60.8046 27.9694 61.1871 26.6166 61.1871 24.8762C61.1871 23.1568 60.8096 21.8306 60.0555 20.897C59.3009 19.964 58.2318 19.4973 56.8487 19.4973C55.465 19.4973 54.4014 19.969 53.6573 20.9125C52.9132 21.856 52.5411 23.1983 52.5411 24.9387C52.5411 26.6791 52.9132 28.0214 53.6573 28.9649C54.4014 29.9084 55.465 30.3801 56.8487 30.3801L56.8481 30.3807ZM79.9574 28.8084C80.2509 28.8084 80.4919 28.924 80.6804 29.1546C80.8689 29.3852 80.9635 29.6789 80.9635 30.035C80.9635 30.6434 80.5859 31.1572 79.8319 31.5764C79.0983 31.9961 78.2967 32.3208 77.4266 32.5514C76.557 32.782 75.7234 32.8976 74.9268 32.8976C72.4955 32.8976 70.5778 32.1903 69.1731 30.7745C67.7684 29.3592 67.0663 27.4247 67.0663 24.9713C67.0663 23.3985 67.3753 22.0042 67.9939 20.7881C68.612 19.5719 69.4821 18.6284 70.6032 17.9576C71.7249 17.2867 72.998 16.951 74.4231 16.951C76.4768 16.951 78.1016 17.6114 79.2962 18.9326C80.4908 20.2538 81.0884 22.0363 81.0884 24.28C81.0884 25.1184 80.7108 25.5382 79.9568 25.5382H70.2417C70.4512 28.7885 72.0129 30.4133 74.9262 30.4133C75.7018 30.4133 76.3724 30.3082 76.9384 30.0986C77.5045 29.889 78.1021 29.6164 78.7307 29.2807C78.7937 29.2386 78.9667 29.1496 79.2498 29.0136C79.5328 28.8775 79.7688 28.8089 79.9574 28.8089V28.8084ZM74.4867 19.2777C73.2711 19.2777 72.2965 19.6654 71.5629 20.4413C70.8293 21.2172 70.3893 22.3078 70.2422 23.7126H78.3542C78.2912 22.2868 77.9296 21.1912 77.2696 20.4258C76.6095 19.6604 75.6819 19.2777 74.4873 19.2777H74.4867ZM92.8484 16.9499C96.5163 16.9499 98.3505 19.0155 98.3505 23.1463V31.3242C98.3505 31.8065 98.209 32.1787 97.926 32.4408C97.6429 32.7029 97.2499 32.834 96.7468 32.834C96.2648 32.834 95.8822 32.698 95.5992 32.4253C95.3162 32.1527 95.1746 31.786 95.1746 31.3247V23.3039C95.1746 22.0037 94.9176 21.0497 94.404 20.4413C93.8904 19.833 93.0889 19.5293 91.9987 19.5293C90.7201 19.5293 89.6929 19.9275 88.9173 20.7245C88.1417 21.5214 87.7542 22.591 87.7542 23.9327V31.3242C87.7542 31.7854 87.6127 32.1527 87.3297 32.4248C87.0466 32.6974 86.6641 32.8335 86.182 32.8335C85.7 32.8335 85.3125 32.6974 85.0189 32.4248C84.7254 32.1521 84.5789 31.7854 84.5789 31.3242V18.5222C84.5789 18.082 84.7309 17.7203 85.0349 17.4371C85.339 17.154 85.7215 17.0124 86.1826 17.0124C86.6436 17.0124 87.0107 17.1485 87.2832 17.4217C87.5558 17.6943 87.6918 18.0505 87.6918 18.4913V19.781C88.1948 18.8585 88.8969 18.1561 89.7985 17.6733C90.6996 17.191 91.7162 16.9499 92.8484 16.9499ZM110.203 30.4122C110.664 30.4542 110.994 30.5748 111.194 30.7739C111.393 30.973 111.493 31.2512 111.493 31.6074C111.493 32.0266 111.331 32.3468 111.006 32.5663C110.68 32.7865 110.204 32.8755 109.575 32.8335L108.726 32.7704C107.028 32.6449 105.76 32.1256 104.921 31.2136C104.083 30.3016 103.664 28.9544 103.664 27.1719V19.7804H101.777C100.855 19.7804 100.394 19.3717 100.394 18.5538C100.394 18.176 100.514 17.8774 100.755 17.6573C100.996 17.4371 101.337 17.3271 101.777 17.3271H103.664V14.0873C103.664 13.6051 103.805 13.2279 104.088 12.9552C104.371 12.6826 104.754 12.5465 105.236 12.5465C105.718 12.5465 106.106 12.6826 106.4 12.9552C106.693 13.2279 106.84 13.6051 106.84 14.0873V17.3271H109.952C110.392 17.3271 110.732 17.4371 110.974 17.6573C111.215 17.8774 111.336 18.1766 111.336 18.5538C111.336 18.9519 111.215 19.2561 110.974 19.4657C110.733 19.6753 110.392 19.7804 109.952 19.7804H106.84V27.3926C106.84 28.3781 107.044 29.1015 107.453 29.5627C107.861 30.024 108.485 30.2861 109.323 30.3492L110.203 30.4122ZM120.453 32.8971C118.944 32.8971 117.618 32.5719 116.476 31.922C115.334 31.2722 114.453 30.3442 113.835 29.1385C113.217 27.9329 112.907 26.5331 112.907 24.9393C112.907 23.3243 113.216 21.9141 113.835 20.7084C114.453 19.5028 115.334 18.5748 116.476 17.9249C117.618 17.2751 118.944 16.9499 120.453 16.9499C121.962 16.9499 123.288 17.2746 124.431 17.9249C125.573 18.5748 126.453 19.5028 127.072 20.7084C127.69 21.9141 128 23.3243 128 24.9393C128 26.5331 127.691 27.9329 127.072 29.1385C126.454 30.3442 125.573 31.2722 124.431 31.922C123.288 32.5719 121.962 32.8971 120.453 32.8971ZM120.453 30.3807C121.858 30.3807 122.932 29.9195 123.676 28.997C124.42 28.0745 124.792 26.7217 124.792 24.9393C124.792 23.1778 124.415 21.8306 123.661 20.8976C122.906 19.9646 121.837 19.4978 120.454 19.4978C119.071 19.4978 118.001 19.9646 117.247 20.8976C116.492 21.8306 116.115 23.1778 116.115 24.9393C116.115 26.7217 116.487 28.0739 117.231 28.997C117.975 29.9195 119.05 30.3807 120.454 30.3807H120.453Z" data-v-74300322=""/><path fill-rule="evenodd" clip-rule="evenodd" d="M19.3241 41.0007C8.65208 41.0007 0 32.3449 0 21.6683V19.6325H13.5251L13.4903 26.8963C13.4886 27.3387 13.8463 27.6993 14.288 27.7009L22.4641 27.7043V40.7457C21.442 40.9133 20.3927 41.0012 19.323 41.0012L19.3241 41.0007ZM0 18.0237V2.33594H13.6075L13.5329 18.0237H0ZM15.2095 2.33594H18.6342V2.34976C18.8636 2.34147 19.0936 2.33594 19.3241 2.33594C29.9962 2.33594 38.6483 10.9917 38.6483 21.6683C38.6483 23.1914 38.4714 24.673 38.1386 26.0949H15.0968L15.2095 2.33594ZM37.6864 27.7037C35.6371 33.9476 30.4954 38.7879 24.0733 40.4117V27.7037H37.6864Z" data-v-74300322=""/></svg>