<svg id="Layer_2" data-name="Layer 2" xmlns="http://www.w3.org/2000/svg" viewBox="0 0 379.66 355.82"><defs><style>.cls-1{fill:#fff;stroke-linecap:round;stroke-linejoin:round;}.cls-1,.cls-2,.cls-3{stroke:#011b4c;stroke-width:0.75px;}.cls-2{fill:#0047cb;}.cls-2,.cls-3{stroke-miterlimit:10;}.cls-3,.cls-4{fill:#387dff;}</style></defs><title>Remittances-pension</title><path class="cls-1" d="M247.89,195.2a18.84,18.84,0,0,0,6-14.41,31,31,0,0,0-12.15-24.39C151.87,86.27,164.28,41.87,164.28,41.87H365.7s12.36,44.19-76.88,114a33.77,33.77,0,0,0-12.77,21.67c-.9,6.28,0,13,5.65,17.29,96.77,73.32,84,119.5,84,119.5H164.28s-13-46.46,84-119.46" transform="translate(0 0)"/><polygon class="cls-1" points="239.91 138.25 324.38 108.25 266.13 169.53 239.91 138.25"/><path class="cls-1" d="M291.45,217.54l-108,96.67H350.12S356.45,261.87,291.45,217.54Z" transform="translate(0 0)"/><ellipse class="cls-2" cx="282.04" cy="122.81" rx="44.97" ry="5.67" transform="translate(-24.98 103.7) rotate(-19.97)"/><ellipse class="cls-2" cx="238.03" cy="265.26" rx="71.45" ry="9.5" transform="matrix(0.75, -0.66, 0.66, 0.75, -115.96, 223.94)"/><rect class="cls-3" x="149.28" y="323.38" width="230" height="31"/><rect class="cls-2" x="159.28" y="313.38" width="212" height="10"/><rect class="cls-3" x="149.28" y="0.38" width="230" height="31"/><rect class="cls-2" x="159.28" y="31.37" width="212" height="10"/><path class="cls-3" d="M238.38,244.45c0,61.86-50.15,111-112,111a112,112,0,0,1,0-224C188.28,131.45,238.38,182.6,238.38,244.45Z" transform="translate(0 0)"/><circle class="cls-1" cx="112.37" cy="243.45" r="112"/><ellipse class="cls-1" cx="111.37" cy="243.45" rx="92" ry="93"/><path class="cls-4" d="M112.38,280.54a36.92,36.92,0,0,1-36.73-37.09v-3.9h25.71l-.08,13.93A1.56,1.56,0,0,0,102.8,255h15.53v25a36.52,36.52,0,0,1-6,.49ZM75.65,236.46V206.37h25.86l-.14,30.09Zm28.91-30.09h7.82a36.9,36.9,0,0,1,36.72,37.08h0a37.89,37.89,0,0,1-1,8.49H104.34ZM147.28,255a37,37,0,0,1-25.87,24.38V255Z" transform="translate(0 0)"/></svg>