<svg id="Layer_2" data-name="Layer 2" xmlns="http://www.w3.org/2000/svg" viewBox="0 0 218.75 263.71"><defs><style>.cls-1{fill:#0047cb;}.cls-1,.cls-2,.cls-3{stroke:#011b4c;stroke-width:0.75px;}.cls-1,.cls-2{stroke-miterlimit:10;}.cls-2{fill:#387dff;}.cls-3{fill:#fff;stroke-linecap:round;stroke-linejoin:round;}</style></defs><title>Remittances-taxes</title><rect class="cls-1" x="19.45" y="0.38" width="198.93" height="262.96"/><rect class="cls-2" x="0.38" y="0.38" width="198.92" height="262.96"/><rect class="cls-3" x="15.36" y="16.72" width="166.22" height="46.33"/><rect class="cls-3" x="15.36" y="79.4" width="35.42" height="35.42"/><rect class="cls-3" x="58.96" y="79.4" width="35.43" height="35.42"/><rect class="cls-3" x="102.56" y="79.4" width="35.43" height="35.42"/><rect class="cls-1" x="146.16" y="79.4" width="35.42" height="35.42"/><rect class="cls-3" x="15.36" y="123" width="35.42" height="35.43"/><rect class="cls-3" x="58.96" y="123" width="35.43" height="35.43"/><rect class="cls-3" x="102.56" y="123" width="35.43" height="35.43"/><rect class="cls-1" x="146.16" y="123" width="35.42" height="35.43"/><rect class="cls-3" x="15.36" y="166.6" width="35.42" height="35.43"/><rect class="cls-3" x="58.96" y="166.6" width="35.43" height="35.43"/><rect class="cls-3" x="102.56" y="166.6" width="35.43" height="35.43"/><rect class="cls-1" x="146.16" y="166.6" width="35.42" height="35.43"/><rect class="cls-1" x="15.36" y="210.2" width="35.42" height="35.42"/><rect class="cls-3" x="58.96" y="210.2" width="35.43" height="35.42"/><rect class="cls-1" x="105.29" y="210.2" width="76.3" height="35.42"/></svg>